<svg id="Layer_1" data-name="Layer 1" xmlns="http://www.w3.org/2000/svg" width="134.905" height="50.305" viewBox="0 0 134.905 50.305">
  <path id="Path_13" data-name="Path 13" d="M51.562,0,22.528,50.305,0,23.151Z" fill="#fff"/>
  <path id="Path_14" data-name="Path 14" d="M16.99,38.617H19.5a.623.623,0,0,0,.7-.705V22.327a.772.772,0,0,0-.156-.535.725.725,0,0,0-.548-.17h-.94a3.462,3.462,0,0,0-2.845,1.671,6.332,6.332,0,0,0-1.018,2.676,16.435,16.435,0,0,0-.261,2.363H13.7l.209-7.466H28.894l.209,7.466h-.731a16.438,16.438,0,0,0-.261-2.363,6.332,6.332,0,0,0-1.018-2.676,3.462,3.462,0,0,0-2.845-1.671h-.94a.725.725,0,0,0-.548.17.772.772,0,0,0-.156.535V37.912a.623.623,0,0,0,.7.705H25.81v.835H16.99Z" fill="#0078d4"/>
  <path id="Path_15" data-name="Path 15" d="M49.341,38.254H51.1a.559.559,0,0,0,.418-.121.6.6,0,0,0,.11-.407V24.741a.7.7,0,0,0-.22-.55.854.854,0,0,0-.594-.2,2.4,2.4,0,0,0-1.892,1.133,7.746,7.746,0,0,0-1.276,2.652,12.74,12.74,0,0,0-.341,1.376q-.1.561-.121.693h-.7l.176-6.558h13.2l.176,6.558h-.7q-.022-.132-.121-.693a12.788,12.788,0,0,0-.341-1.376A7.757,7.757,0,0,0,57.6,25.124a2.4,2.4,0,0,0-1.9-1.131.855.855,0,0,0-.594.2.7.7,0,0,0-.22.55V37.725a.446.446,0,0,0,.528.528h1.761v.7H49.341v-.7Z" fill="#fff"/>
  <path id="Path_16" data-name="Path 16" d="M61.8,38.43h.836a.291.291,0,0,0,.352-.352V29.407a.291.291,0,0,0-.352-.352H61.8v-.528h3.741v2.179l.11.022a5.074,5.074,0,0,1,1-1.739,1.91,1.91,0,0,1,1.441-.726,1.655,1.655,0,0,1,1.3.572,2.111,2.111,0,0,1,.506,1.452,2.181,2.181,0,0,1-.462,1.4,1.409,1.409,0,0,1-1.144.583,1.49,1.49,0,0,1-1.012-.363,1.136,1.136,0,0,1-.418-.891,1.826,1.826,0,0,1,.528-1.144,1.036,1.036,0,0,0,.308-.506q0-.22-.242-.22-.441,0-.891.638a5.375,5.375,0,0,0-.737,1.672,8.223,8.223,0,0,0-.286,2.2v4.423a.291.291,0,0,0,.352.352h.7v.528H61.8Z" fill="#fff"/>
  <path id="Path_17" data-name="Path 17" d="M76.211,39.222a4.176,4.176,0,0,1-2.432-.737,4.927,4.927,0,0,1-1.661-1.992,6.341,6.341,0,0,1-.594-2.751,6.445,6.445,0,0,1,.594-2.8,4.9,4.9,0,0,1,1.617-1.97,3.816,3.816,0,0,1,2.234-.715,3.171,3.171,0,0,1,2.31.958,4.722,4.722,0,0,1,1.276,2.52,11.287,11.287,0,0,1,.154,2.2h-5.37q0,1.057.044,1.662a6.263,6.263,0,0,0,.2,1.177,2.414,2.414,0,0,0,.759,1.3,1.944,1.944,0,0,0,1.309.484,2.028,2.028,0,0,0,1.739-.946,4.648,4.648,0,0,0,.792-2.223h.572a5.136,5.136,0,0,1-.99,2.674,2.977,2.977,0,0,1-2.553,1.155Zm.946-5.9a14.381,14.381,0,0,0-.3-3.422q-.3-1.111-1.111-1.111T74.638,29.9a14.381,14.381,0,0,0-.3,3.422Z" fill="#fff"/>
  <path id="Path_18" data-name="Path 18" d="M85.872,39.222a3.042,3.042,0,0,1-2.047-.781,5.206,5.206,0,0,1-1.409-2.047,7.078,7.078,0,0,1-.506-2.652,7.334,7.334,0,0,1,.484-2.663,5.14,5.14,0,0,1,1.365-2.036,2.961,2.961,0,0,1,2.024-.781,2.018,2.018,0,0,1,1.254.418,3.108,3.108,0,0,1,.9,1.144l.132-.044V24.169a.291.291,0,0,0-.352-.352H86.489v-.528h4.137V38.077a.291.291,0,0,0,.352.352H92.21v.528H88.073V37.681h-.132a3.164,3.164,0,0,1-.825,1.078,1.854,1.854,0,0,1-1.243.462Zm.308-.7a1.179,1.179,0,0,0,.935-.627,5.244,5.244,0,0,0,.693-1.706,11.351,11.351,0,0,0-.044-5.062,4.443,4.443,0,0,0-.748-1.629,1.182,1.182,0,0,0-.836-.528q-1.452,0-1.452,4.776t1.452,4.775Z" fill="#fff"/>
  <path id="Path_19" data-name="Path 19" d="M98.438,39.222a4.176,4.176,0,0,1-2.432-.737,4.927,4.927,0,0,1-1.661-1.992,6.342,6.342,0,0,1-.594-2.751,6.445,6.445,0,0,1,.594-2.8,4.9,4.9,0,0,1,1.617-1.97,3.816,3.816,0,0,1,2.234-.715,3.171,3.171,0,0,1,2.311.958,4.722,4.722,0,0,1,1.276,2.52,11.289,11.289,0,0,1,.154,2.2h-5.37q0,1.057.044,1.662a6.264,6.264,0,0,0,.2,1.177,2.414,2.414,0,0,0,.759,1.3,1.944,1.944,0,0,0,1.309.484,2.028,2.028,0,0,0,1.739-.946,4.648,4.648,0,0,0,.792-2.223h.572a5.137,5.137,0,0,1-.99,2.674,2.977,2.977,0,0,1-2.553,1.155Zm.946-5.9a14.381,14.381,0,0,0-.3-3.422q-.3-1.111-1.111-1.111T96.865,29.9a14.381,14.381,0,0,0-.3,3.422Z" fill="#fff"/>
  <path id="Path_20" data-name="Path 20" d="M103.962,38.43h.837a.291.291,0,0,0,.352-.352V29.407a.291.291,0,0,0-.352-.352h-.837v-.528H107.7v1.959l.11.022a4.437,4.437,0,0,1,1.133-1.64,2.355,2.355,0,0,1,1.6-.6,3.269,3.269,0,0,1,.946.121,2.722,2.722,0,0,1,.748.363,2.687,2.687,0,0,1,.869,1.1,3.485,3.485,0,0,1,.319,1.452v6.778a.291.291,0,0,0,.352.352h.836v.528h-4.8V38.43h.7a.291.291,0,0,0,.352-.352V30.661q0-1.695-1.012-1.695a1.358,1.358,0,0,0-.968.616,5.131,5.131,0,0,0-.847,1.629,6.705,6.705,0,0,0-.341,2.157v4.709a.292.292,0,0,0,.352.352h.7v.528h-4.8V38.43Z" fill="#fff"/>
  <path id="Path_21" data-name="Path 21" d="M121.061,39.222a4.176,4.176,0,0,1-2.432-.737,4.927,4.927,0,0,1-1.661-1.992,6.341,6.341,0,0,1-.594-2.751,6.443,6.443,0,0,1,.583-2.751A4.846,4.846,0,0,1,118.607,29a4.141,4.141,0,0,1,2.41-.737,3.323,3.323,0,0,1,1.772.44,2.842,2.842,0,0,1,1.067,1.122,3.037,3.037,0,0,1,.352,1.409,2.087,2.087,0,0,1-.484,1.375,1.469,1.469,0,0,1-1.166.583,1.2,1.2,0,0,1-.836-.3,1.027,1.027,0,0,1-.33-.8,1.566,1.566,0,0,1,.7-1.166,1.214,1.214,0,0,0,.528-.9,1.25,1.25,0,0,0-.341-.847,1.386,1.386,0,0,0-1.089-.385q-1.034,0-1.519,1.309a10.872,10.872,0,0,0-.484,3.642q0,1.166.044,1.815a6.338,6.338,0,0,0,.2,1.221,2.414,2.414,0,0,0,.759,1.3,1.944,1.944,0,0,0,1.309.484,2.028,2.028,0,0,0,1.739-.946,4.648,4.648,0,0,0,.792-2.223h.572a5.136,5.136,0,0,1-.99,2.674,2.977,2.977,0,0,1-2.553,1.155Z" fill="#fff"/>
  <path id="Path_22" data-name="Path 22" d="M131.361,39.222a4.176,4.176,0,0,1-2.432-.737,4.928,4.928,0,0,1-1.661-1.992,6.341,6.341,0,0,1-.594-2.751,6.445,6.445,0,0,1,.594-2.795,4.9,4.9,0,0,1,1.617-1.97,3.816,3.816,0,0,1,2.234-.715,3.171,3.171,0,0,1,2.311.958,4.722,4.722,0,0,1,1.276,2.52,11.289,11.289,0,0,1,.154,2.2h-5.37q0,1.057.044,1.662a6.26,6.26,0,0,0,.2,1.177,2.414,2.414,0,0,0,.759,1.3,1.944,1.944,0,0,0,1.309.484,2.028,2.028,0,0,0,1.739-.946,4.648,4.648,0,0,0,.792-2.223h.572a5.137,5.137,0,0,1-.99,2.674,2.977,2.977,0,0,1-2.553,1.155Zm.946-5.9a14.38,14.38,0,0,0-.3-3.422q-.3-1.111-1.111-1.111T129.787,29.9a14.381,14.381,0,0,0-.3,3.422Z" fill="#fff"/>
  <path id="Path_23" data-name="Path 23" d="M55.1,47.488l1.053.246a3.237,3.237,0,0,1-1.187,1.825,3.444,3.444,0,0,1-2.1.63,4,4,0,0,1-2.085-.484,3.068,3.068,0,0,1-1.221-1.4,4.682,4.682,0,0,1-.42-1.969,4.061,4.061,0,0,1,.473-2,3.127,3.127,0,0,1,1.347-1.3,4.181,4.181,0,0,1,1.922-.443,3.425,3.425,0,0,1,2,.561,2.91,2.91,0,0,1,1.131,1.577l-1.031.226a2.033,2.033,0,0,0-2.12-1.533,2.711,2.711,0,0,0-1.527.406,2.159,2.159,0,0,0-.861,1.09,4.094,4.094,0,0,0-.249,1.412,4.189,4.189,0,0,0,.294,1.635,2.071,2.071,0,0,0,.915,1.045,2.709,2.709,0,0,0,1.344.346,2.228,2.228,0,0,0,2.316-1.87Z" fill="#fff"/>
  <path id="Path_24" data-name="Path 24" d="M56.963,47.4a2.63,2.63,0,0,1,.889-2.187,2.814,2.814,0,0,1,1.81-.59,2.7,2.7,0,0,1,1.939.719,2.611,2.611,0,0,1,.752,1.983,3.289,3.289,0,0,1-.333,1.613,2.272,2.272,0,0,1-.97.914,3,3,0,0,1-1.388.325,2.526,2.526,0,0,1-2.7-2.777Zm1,0a2.139,2.139,0,0,0,.482,1.528,1.7,1.7,0,0,0,2.429,0,2.194,2.194,0,0,0,.482-1.555,2.077,2.077,0,0,0-.486-1.492,1.705,1.705,0,0,0-2.425,0,2.133,2.133,0,0,0-.482,1.524Z" fill="#fff"/>
  <path id="Path_25" data-name="Path 25" d="M63.5,50.066V44.738h.876v.756a2.121,2.121,0,0,1,1.828-.869,2.574,2.574,0,0,1,.956.173,1.5,1.5,0,0,1,.653.453,1.667,1.667,0,0,1,.3.666,4.932,4.932,0,0,1,.054.878v3.271H67.19V46.829A2.266,2.266,0,0,0,67.077,46a.9.9,0,0,0-.4-.436A1.366,1.366,0,0,0,66,45.4a1.646,1.646,0,0,0-1.072.366,1.72,1.72,0,0,0-.451,1.388v2.907Z" fill="#fff"/>
  <path id="Path_26" data-name="Path 26" d="M69.665,50.066V44.738h.876v.756a2.121,2.121,0,0,1,1.828-.869,2.573,2.573,0,0,1,.956.173,1.5,1.5,0,0,1,.653.453,1.666,1.666,0,0,1,.3.666,4.895,4.895,0,0,1,.054.878v3.271h-.976V46.829A2.265,2.265,0,0,0,73.245,46a.9.9,0,0,0-.4-.436,1.366,1.366,0,0,0-.678-.163,1.647,1.647,0,0,0-1.072.366,1.72,1.72,0,0,0-.451,1.388v2.907Z" fill="#fff"/>
  <path id="Path_27" data-name="Path 27" d="M79.758,48.341l1.009.123a2.253,2.253,0,0,1-.88,1.264,2.806,2.806,0,0,1-1.643.45,2.737,2.737,0,0,1-2-.719,2.678,2.678,0,0,1-.738-2.013,2.8,2.8,0,0,1,.745-2.081,2.625,2.625,0,0,1,1.935-.741,2.549,2.549,0,0,1,1.88.725,2.756,2.756,0,0,1,.73,2.043c0,.053,0,.133-.005.24H76.509a1.958,1.958,0,0,0,.536,1.341,1.658,1.658,0,0,0,1.2.465,1.564,1.564,0,0,0,.913-.262,1.733,1.733,0,0,0,.6-.837Zm-3.194-1.447h3.205a1.723,1.723,0,0,0-.368-1.008,1.54,1.54,0,0,0-1.205-.522,1.571,1.571,0,0,0-1.632,1.53Z" fill="#fff"/>
  <path id="Path_28" data-name="Path 28" d="M85.759,48.116l.954.123a2.235,2.235,0,0,1-.8,1.425,2.466,2.466,0,0,1-1.588.515,2.567,2.567,0,0,1-1.895-.713,2.754,2.754,0,0,1-.717-2.043,3.471,3.471,0,0,1,.308-1.507,2.039,2.039,0,0,1,.939-.967,2.953,2.953,0,0,1,1.371-.323,2.511,2.511,0,0,1,1.53.438,1.98,1.98,0,0,1,.763,1.246l-.943.134a1.432,1.432,0,0,0-.48-.808,1.308,1.308,0,0,0-.832-.27,1.578,1.578,0,0,0-1.2.488,2.2,2.2,0,0,0-.46,1.545,2.266,2.266,0,0,0,.443,1.557,1.5,1.5,0,0,0,1.159.486,1.427,1.427,0,0,0,.959-.325,1.552,1.552,0,0,0,.488-1Z" fill="#fff"/>
  <path id="Path_29" data-name="Path 29" d="M89.663,49.26l.133.8a3.914,3.914,0,0,1-.734.08,1.773,1.773,0,0,1-.823-.156.9.9,0,0,1-.41-.409,3.025,3.025,0,0,1-.119-1.068V45.436h-.72v-.7h.721V43.421l.976-.542v1.86h.976v.7h-.976V48.56a1.442,1.442,0,0,0,.052.5.385.385,0,0,0,.166.176.7.7,0,0,0,.333.065,3.28,3.28,0,0,0,.425-.036Z" fill="#fff"/>
  <path id="Path_30" data-name="Path 30" d="M95.826,49.26l.133.8a3.917,3.917,0,0,1-.734.08,1.773,1.773,0,0,1-.823-.156.9.9,0,0,1-.41-.409,3.019,3.019,0,0,1-.118-1.068V45.436h-.721v-.7h.721V43.421l.976-.542v1.86h.976v.7H94.85V48.56a1.435,1.435,0,0,0,.052.5.384.384,0,0,0,.166.176.7.7,0,0,0,.333.065,3.278,3.278,0,0,0,.425-.036Z" fill="#fff"/>
  <path id="Path_31" data-name="Path 31" d="M96.788,50.066v-7.35h.976v2.645a2.231,2.231,0,0,1,1.715-.736,2.461,2.461,0,0,1,1.105.233,1.423,1.423,0,0,1,.671.643,2.787,2.787,0,0,1,.2,1.193v3.372h-.976V46.7a1.333,1.333,0,0,0-.314-.984,1.22,1.22,0,0,0-.891-.308,1.661,1.661,0,0,0-.81.207,1.212,1.212,0,0,0-.541.564,2.426,2.426,0,0,0-.161.981v2.908Z" fill="#fff"/>
  <path id="Path_32" data-name="Path 32" d="M106.882,48.341l1.009.123a2.255,2.255,0,0,1-.88,1.264,2.806,2.806,0,0,1-1.643.45,2.738,2.738,0,0,1-2-.719,2.678,2.678,0,0,1-.737-2.013,2.8,2.8,0,0,1,.745-2.081,2.626,2.626,0,0,1,1.935-.741,2.549,2.549,0,0,1,1.88.725,2.756,2.756,0,0,1,.73,2.043c0,.053,0,.133-.005.24H103.63a1.959,1.959,0,0,0,.536,1.341,1.658,1.658,0,0,0,1.2.465,1.564,1.564,0,0,0,.913-.262,1.733,1.733,0,0,0,.6-.837Zm-3.194-1.447h3.205a1.721,1.721,0,0,0-.368-1.008,1.539,1.539,0,0,0-1.205-.522,1.571,1.571,0,0,0-1.632,1.53Z" fill="#fff"/>
  <path id="Path_33" data-name="Path 33" d="M112.327,50.066v-7.35h2.736a7.159,7.159,0,0,1,1.414.1,2.8,2.8,0,0,1,1.164.527,2.984,2.984,0,0,1,.939,1.256,4.575,4.575,0,0,1,.312,1.748,4.79,4.79,0,0,1-.211,1.483,3.492,3.492,0,0,1-.541,1.071,2.781,2.781,0,0,1-.725.666,3.054,3.054,0,0,1-.946.369,5.827,5.827,0,0,1-1.277.125Zm1.054-.862h1.693a4.4,4.4,0,0,0,1.231-.135,1.8,1.8,0,0,0,.712-.382,2.3,2.3,0,0,0,.581-.932,4.26,4.26,0,0,0,.209-1.418,3.235,3.235,0,0,0-.408-1.776,2,2,0,0,0-.993-.831,4.376,4.376,0,0,0-1.358-.151h-1.665V49.2Z" fill="#fff"/>
  <path id="Path_34" data-name="Path 34" d="M119.848,47.4a2.629,2.629,0,0,1,.889-2.187,2.814,2.814,0,0,1,1.81-.59,2.7,2.7,0,0,1,1.939.719,2.61,2.61,0,0,1,.753,1.983,3.286,3.286,0,0,1-.333,1.613,2.272,2.272,0,0,1-.97.914,3,3,0,0,1-1.388.325,2.526,2.526,0,0,1-2.7-2.777Zm1,0a2.14,2.14,0,0,0,.482,1.528,1.7,1.7,0,0,0,2.429,0,2.193,2.193,0,0,0,.482-1.555,2.077,2.077,0,0,0-.486-1.492,1.705,1.705,0,0,0-2.425,0,2.135,2.135,0,0,0-.482,1.524Z" fill="#fff"/>
  <path id="Path_35" data-name="Path 35" d="M128.5,49.26l.133.8a3.914,3.914,0,0,1-.734.08,1.774,1.774,0,0,1-.823-.156.9.9,0,0,1-.41-.409,3.016,3.016,0,0,1-.119-1.068V45.436h-.721v-.7h.721V43.421l.976-.542v1.86h.976v.7h-.976V48.56a1.445,1.445,0,0,0,.052.5.385.385,0,0,0,.166.176.7.7,0,0,0,.333.065,3.287,3.287,0,0,0,.425-.036Z" fill="#fff"/>
  <path id="Path_36" data-name="Path 36" d="M129.074,48.475l.965-.144a1.222,1.222,0,0,0,.453.823,1.675,1.675,0,0,0,1.039.286,1.621,1.621,0,0,0,1-.253.738.738,0,0,0,.325-.594.539.539,0,0,0-.292-.481,4.663,4.663,0,0,0-1-.306,9.621,9.621,0,0,1-1.484-.431,1.419,1.419,0,0,1-.627-.506,1.26,1.26,0,0,1-.214-.712,1.3,1.3,0,0,1,.175-.659,1.515,1.515,0,0,1,.479-.5,2.123,2.123,0,0,1,.619-.262,3.174,3.174,0,0,1,.841-.108,3.52,3.52,0,0,1,1.187.181,1.615,1.615,0,0,1,.756.489,1.854,1.854,0,0,1,.334.828l-.954.123a.963.963,0,0,0-.375-.65,1.437,1.437,0,0,0-.878-.233,1.688,1.688,0,0,0-.956.206.591.591,0,0,0-.286.481.48.48,0,0,0,.118.316.868.868,0,0,0,.373.24c.1.034.383.111.86.231a12.858,12.858,0,0,1,1.442.418,1.454,1.454,0,0,1,.643.472,1.239,1.239,0,0,1,.234.772,1.424,1.424,0,0,1-.284.847,1.827,1.827,0,0,1-.821.616,3.206,3.206,0,0,1-1.214.217,2.881,2.881,0,0,1-1.71-.429,1.969,1.969,0,0,1-.75-1.274Z" fill="#fff"/>
</svg>
