<svg xmlns="http://www.w3.org/2000/svg" xmlns:xlink="http://www.w3.org/1999/xlink" viewBox="0 0 262.43 58.51"><defs><style>.cls-1{fill:url(#linear-gradient);}.cls-2{fill:url(#linear-gradient-2);}.cls-3{fill:#fff;}</style><linearGradient id="linear-gradient" y1="29.25" x2="61.56" y2="29.25" gradientUnits="userSpaceOnUse"><stop offset="0" stop-color="#ff4c44"/><stop offset="0.48" stop-color="#fe4a46"/><stop offset="0.73" stop-color="#f9424b"/><stop offset="0.92" stop-color="#f13454"/><stop offset="1" stop-color="#ec2d59"/></linearGradient><linearGradient id="linear-gradient-2" x1="72.09" y1="29.25" x2="109.74" y2="29.25" xlink:href="#linear-gradient"/></defs><g id="Layer_2" data-name="Layer 2"><g id="Layer_1-2" data-name="Layer 1"><path class="cls-1" d="M15.75,0l15,42.43L45.73,0H61.56V58.51H49.46v-16l1.21-27.6L34.88,58.51H26.6L10.85,15l1.2,27.56v16H0V0Z"/><path class="cls-2" d="M84.14,48.82h25.6v9.69H72.09V0h12Z"/><path class="cls-3" d="M127.25,47.71l.59,4,.86-3.64,6.06-21.38h3.41l5.91,21.38.84,3.7.65-4.12,4.76-21h4.06L147,57.36h-3.68L137,35l-.49-2.33L136,35l-6.54,22.32h-3.69l-7.4-30.63h4Z"/><path class="cls-3" d="M182.44,43a18.89,18.89,0,0,1-1.52,7.85A11.49,11.49,0,0,1,176.63,56a11.84,11.84,0,0,1-17.24-5.08,18.26,18.26,0,0,1-1.59-7.63V41.1a18.8,18.8,0,0,1,1.53-7.81,11.81,11.81,0,0,1,4.35-5.18,11.64,11.64,0,0,1,6.43-1.8,11.86,11.86,0,0,1,6.49,1.78,11.43,11.43,0,0,1,4.32,5.15,19,19,0,0,1,1.52,7.86Zm-4-2q0-5.45-2.19-8.37a7.22,7.22,0,0,0-6.12-2.91,7.13,7.13,0,0,0-6,2.91c-1.47,2-2.22,4.64-2.26,8.09V43c0,3.52.74,6.28,2.22,8.3a7.77,7.77,0,0,0,12.17.16q2.14-2.85,2.21-8.17Z"/><path class="cls-3" d="M199.73,45h-7.2V57.36h-4.06V26.73h10.15q5.17,0,8,2.36c1.86,1.57,2.79,3.85,2.79,6.86a8.24,8.24,0,0,1-1.55,5,9.18,9.18,0,0,1-4.3,3.18l7.19,13v.25h-4.33Zm-7.2-3.3h6.21a7,7,0,0,0,4.79-1.56,5.3,5.3,0,0,0,1.78-4.18,5.56,5.56,0,0,0-1.7-4.36A7.21,7.21,0,0,0,198.72,30h-6.19Z"/><path class="cls-3" d="M222.81,43.12,219.07,47V57.36h-4V26.73h4V41.88l13.61-15.15h4.88L225.5,40.26l13,17.1h-4.84Z"/><path class="cls-3" d="M251.07,43.71q-5.2-1.5-7.57-3.67a7,7,0,0,1-2.36-5.38,7.39,7.39,0,0,1,2.89-6,11.5,11.5,0,0,1,7.52-2.37,12.59,12.59,0,0,1,5.63,1.22A9.27,9.27,0,0,1,261,30.9a8.64,8.64,0,0,1,1.36,4.69h-4.06a5.59,5.59,0,0,0-1.77-4.38,7.16,7.16,0,0,0-5-1.6,7.36,7.36,0,0,0-4.66,1.32,4.41,4.41,0,0,0-1.67,3.66,3.94,3.94,0,0,0,1.59,3.17,15.72,15.72,0,0,0,5.41,2.37,25.43,25.43,0,0,1,6,2.37,9.08,9.08,0,0,1,3.2,3,7.73,7.73,0,0,1,1,4.06,7.16,7.16,0,0,1-2.9,6,12.37,12.37,0,0,1-7.77,2.24,14.34,14.34,0,0,1-5.89-1.21,9.91,9.91,0,0,1-4.22-3.31,8.06,8.06,0,0,1-1.48-4.77h4.06a5.25,5.25,0,0,0,2.05,4.38,8.67,8.67,0,0,0,5.48,1.61,7.92,7.92,0,0,0,4.9-1.3,4.24,4.24,0,0,0,1.71-3.56,4.16,4.16,0,0,0-1.58-3.48A18.21,18.21,0,0,0,251.07,43.71Z"/></g></g></svg>